<?xml version="1.0" encoding="utf-8"?>
<!-- Generator: Adobe Illustrator 16.0.0, SVG Export Plug-In . SVG Version: 6.00 Build 0)  -->
<!DOCTYPE svg PUBLIC "-//W3C//DTD SVG 1.1//EN" "http://www.w3.org/Graphics/SVG/1.1/DTD/svg11.dtd">
<svg version="1.1" id="Layer_1" xmlns="http://www.w3.org/2000/svg" xmlns:xlink="http://www.w3.org/1999/xlink" x="0px" y="0px"
	 width="841.335px" height="1056.33px" viewBox="0 56.232 841.335 1056.33" enable-background="new 0 56.232 841.335 1056.33"
	 xml:space="preserve">
<g>
	<path fill="#FFFFFF" d="M3.684,493.821v-19.225c0-54.64,10.625-107.761,31.367-158.859c20.743-51.098,50.592-96.63,89.042-136.092
		c77.912-79.43,172.013-119.397,283.315-119.397s201.355,35.92,270.161,107.254c77.911,79.43,116.866,184.661,116.866,316.2
		c0,131.032-45.026,249.923-135.586,355.662c-44.521,52.109-66.78,78.923-66.78,79.935c0,17.708,17.705,36.933,52.615,57.676
		c34.908,20.741,76.394,38.449,124.456,53.121c48.063,14.671,69.273,25.076,71.841,36.932c0.297,1.371,0.354,1.655,0.354,3.759
		c0,2.103-0.164,3.047-0.304,4.324c-0.514,4.726-3.087,9.118-9.157,14.178c-18.719,15.684-48.569,23.273-90.56,23.273
		c-64.759-0.508-151.271-22.262-259.537-66.276c-108.773-43.509-199.838-96.124-273.197-156.834
		C71.983,777.136,3.684,645.597,3.684,494.833C3.684,494.328,3.684,494.328,3.684,493.821z"/>
</g>
<g>
	<path d="M0,489.806v-19.225c0-54.64,10.625-107.761,31.367-158.859c20.743-51.098,50.592-96.631,89.042-136.092
		C198.32,96.2,292.421,56.232,403.724,56.232s201.355,35.92,270.161,107.254c77.911,79.43,116.866,184.661,116.866,316.2
		c0,131.032-45.026,249.923-135.586,355.661c-44.521,52.109-66.78,78.923-66.78,79.936c0,17.708,17.705,36.933,52.615,57.676
		c34.908,20.741,76.394,38.449,124.456,53.12c48.063,14.672,69.273,25.077,71.841,36.933c0.297,1.371,0.354,1.655,0.354,3.758
		c0,2.104-0.164,3.048-0.304,4.325c-0.514,4.725-3.087,9.117-9.157,14.178c-18.719,15.683-48.569,23.273-90.56,23.273
		c-64.758-0.508-151.271-22.262-259.537-66.276c-108.773-43.509-199.838-96.124-273.197-156.835C68.299,773.121,0,641.582,0,490.817
		C0,490.312,0,490.312,0,489.806z"/>
</g>
</svg>
