<?xml version="1.0" encoding="utf-8"?>
<!-- Generator: Adobe Illustrator 19.1.0, SVG Export Plug-In . SVG Version: 6.00 Build 0)  -->
<!DOCTYPE svg PUBLIC "-//W3C//DTD SVG 1.1//EN" "http://www.w3.org/Graphics/SVG/1.1/DTD/svg11.dtd">
<svg version="1.1" id="Layer_1" xmlns="http://www.w3.org/2000/svg" xmlns:xlink="http://www.w3.org/1999/xlink" x="0px" y="0px"
	 viewBox="0 0 165.5 208" enable-background="new 0 0 165.5 208" xml:space="preserve">
<g>
	<path d="M0,85.7v-3.8c0-10.8,2.1-21.3,6.2-31.4c4.1-10.1,10-19.1,17.6-26.9C39.2,7.9,57.8,0,79.8,0c22,0,39.8,7.1,53.4,21.2
		c15.4,15.7,23.1,36.5,23.1,62.5c0,25.9-8.9,49.4-26.8,70.3c-8.8,10.3-13.2,15.6-13.2,15.8c0,3.5,3.5,7.3,10.4,11.4
		c6.9,4.1,15.1,7.6,24.6,10.5c9.5,2.9,14.2,5.3,14.2,7.3v1.5c0,0.9-0.6,1.9-1.8,2.9c-3.7,3.1-9.6,4.6-17.9,4.6
		c-12.8-0.1-29.9-4.4-51.3-13.1c-21.5-8.6-39.5-19-54-31C13.5,141.7,0,115.7,0,85.9C0,85.8,0,85.8,0,85.7z"/>
</g>
</svg>
