<?xml version="1.0" encoding="utf-8"?>
<!-- Generator: Adobe Illustrator 19.1.0, SVG Export Plug-In . SVG Version: 6.00 Build 0)  -->
<!DOCTYPE svg PUBLIC "-//W3C//DTD SVG 1.1//EN" "http://www.w3.org/Graphics/SVG/1.1/DTD/svg11.dtd">
<svg version="1.1" id="Layer_13" xmlns="http://www.w3.org/2000/svg" xmlns:xlink="http://www.w3.org/1999/xlink" x="0px" y="0px"
	 viewBox="0 0 140.5 170.9" enable-background="new 0 0 140.5 170.9" xml:space="preserve">
<g>
	<path fill="#FFFFFF" d="M16.1,166.8H13c0,0.3,0,0.5,0.1,0.7c0.1,0.2,0.2,0.4,0.4,0.5c0.2,0.1,0.4,0.2,0.7,0.2c0.3,0,0.5,0,0.6-0.1
		c0.2-0.1,0.3-0.2,0.5-0.4l0.6,0.6c-0.3,0.3-0.5,0.4-0.8,0.6c-0.3,0.1-0.6,0.2-1,0.2c-0.3,0-0.6,0-0.9-0.1c-0.3-0.1-0.5-0.2-0.7-0.4
		c-0.2-0.2-0.3-0.4-0.5-0.8c-0.1-0.3-0.2-0.7-0.2-1.1c0-0.5,0.1-1,0.3-1.3c0.2-0.4,0.4-0.6,0.7-0.8c0.3-0.2,0.7-0.3,1.1-0.3
		c0.4,0,0.8,0.1,1.1,0.3c0.3,0.2,0.5,0.5,0.7,0.8c0.2,0.3,0.2,0.7,0.2,1.2V166.8z M15.2,166.2c0-0.2-0.1-0.5-0.1-0.7
		c-0.1-0.2-0.2-0.3-0.4-0.4c-0.2-0.1-0.4-0.2-0.6-0.2c-0.2,0-0.4,0.1-0.6,0.2c-0.2,0.1-0.3,0.3-0.4,0.4c0,0.1-0.1,0.2-0.1,0.3
		c0,0.1,0,0.2,0,0.4H15.2z"/>
	<path fill="#FFFFFF" d="M22.2,169h-1V166c0-0.2,0-0.4-0.1-0.6c-0.1-0.2-0.2-0.3-0.3-0.4c-0.1-0.1-0.3-0.1-0.5-0.1
		c-0.3,0-0.5,0.1-0.7,0.3c-0.2,0.2-0.3,0.4-0.3,0.8v2.9h-1v-4.8h0.9v0.5c0.2-0.2,0.3-0.3,0.6-0.4c0.2-0.1,0.5-0.1,0.7-0.1
		c0.5,0,0.9,0.1,1.2,0.4c0.3,0.3,0.5,0.8,0.5,1.3V169z"/>
	<path fill="#FFFFFF" d="M26.6,169H26c-0.3,0-0.5-0.1-0.7-0.2c-0.2-0.1-0.3-0.3-0.4-0.5c-0.1-0.2-0.1-0.4-0.1-0.7V165h-0.5v-0.7h0.5
		v-1.5h1v1.5h0.9v0.7h-0.9v2.6c0,0.4,0.2,0.6,0.5,0.6h0.4V169z"/>
	<path fill="#FFFFFF" d="M32.6,166.8h-3.1c0,0.3,0,0.5,0.1,0.7c0.1,0.2,0.2,0.4,0.4,0.5c0.2,0.1,0.4,0.2,0.7,0.2
		c0.3,0,0.5,0,0.6-0.1c0.2-0.1,0.3-0.2,0.5-0.4l0.6,0.6c-0.3,0.3-0.5,0.4-0.8,0.6c-0.3,0.1-0.6,0.2-1,0.2c-0.3,0-0.6,0-0.9-0.1
		c-0.3-0.1-0.5-0.2-0.7-0.4c-0.2-0.2-0.3-0.4-0.5-0.8c-0.1-0.3-0.2-0.7-0.2-1.1c0-0.5,0.1-1,0.3-1.3c0.2-0.4,0.4-0.6,0.7-0.8
		c0.3-0.2,0.7-0.3,1.1-0.3c0.4,0,0.8,0.1,1.1,0.3c0.3,0.2,0.5,0.5,0.7,0.8c0.2,0.3,0.2,0.7,0.2,1.2V166.8z M31.6,166.2
		c0-0.2-0.1-0.5-0.1-0.7c-0.1-0.2-0.2-0.3-0.4-0.4c-0.2-0.1-0.4-0.2-0.6-0.2c-0.2,0-0.4,0.1-0.6,0.2c-0.2,0.1-0.3,0.3-0.4,0.4
		c0,0.1-0.1,0.2-0.1,0.3c0,0.1,0,0.2,0,0.4H31.6z"/>
	<path fill="#FFFFFF" d="M38.2,164.6l-0.7,0.7c-0.1-0.1-0.2-0.2-0.3-0.2c-0.1,0-0.2-0.1-0.4-0.1c-0.2,0-0.3,0-0.5,0.1
		c-0.1,0.1-0.3,0.2-0.3,0.4c-0.1,0.2-0.1,0.3-0.1,0.6v2.9h-1v-4.8h0.9v0.5c0.1-0.2,0.3-0.3,0.5-0.4c0.2-0.1,0.5-0.2,0.7-0.2
		c0.2,0,0.4,0,0.6,0.1C37.8,164.3,38,164.4,38.2,164.6z"/>
	<path fill="#FFFFFF" d="M43.8,166.6c0,0.3,0,0.6,0,0.8c0,0.2-0.1,0.5-0.2,0.7c-0.1,0.2-0.2,0.4-0.3,0.5c-0.1,0.1-0.3,0.2-0.5,0.3
		c-0.2,0.1-0.4,0.1-0.7,0.1c-0.3,0-0.5,0-0.7-0.1c-0.2-0.1-0.4-0.2-0.5-0.4v2.4h-1v-6.7h0.9v0.5c0.2-0.2,0.4-0.4,0.6-0.4
		c0.2-0.1,0.4-0.1,0.7-0.1c0.2,0,0.5,0,0.7,0.1c0.2,0.1,0.4,0.2,0.5,0.3c0.1,0.2,0.3,0.3,0.3,0.5c0.1,0.2,0.1,0.4,0.2,0.7
		C43.8,166,43.8,166.3,43.8,166.6z M42.8,166.6c0-0.3,0-0.6-0.1-0.8c0-0.2-0.1-0.4-0.3-0.5c-0.1-0.1-0.4-0.2-0.6-0.2
		c-0.3,0-0.5,0.1-0.6,0.2c-0.1,0.1-0.2,0.3-0.3,0.5c0,0.2-0.1,0.5-0.1,0.8c0,0.3,0,0.6,0.1,0.8c0,0.2,0.1,0.4,0.3,0.6
		c0.1,0.1,0.4,0.2,0.6,0.2c0.4,0,0.7-0.1,0.8-0.4C42.8,167.5,42.8,167.1,42.8,166.6z"/>
	<path fill="#FFFFFF" d="M49.4,164.6l-0.7,0.7c-0.1-0.1-0.2-0.2-0.3-0.2c-0.1,0-0.2-0.1-0.4-0.1c-0.2,0-0.3,0-0.5,0.1
		c-0.1,0.1-0.3,0.2-0.3,0.4c-0.1,0.2-0.1,0.3-0.1,0.6v2.9h-1v-4.8H47v0.5c0.1-0.2,0.3-0.3,0.5-0.4c0.2-0.1,0.5-0.2,0.7-0.2
		c0.2,0,0.4,0,0.6,0.1C49.1,164.3,49.2,164.4,49.4,164.6z"/>
	<path fill="#FFFFFF" d="M52.2,162.6c0,0.2-0.1,0.3-0.2,0.4c-0.1,0.1-0.3,0.2-0.4,0.2c-0.2,0-0.3-0.1-0.4-0.2
		c-0.1-0.1-0.2-0.3-0.2-0.4c0-0.2,0.1-0.3,0.2-0.4c0.1-0.1,0.3-0.2,0.4-0.2c0.2,0,0.3,0.1,0.4,0.2C52.2,162.3,52.2,162.4,52.2,162.6
		z M52.1,169h-1v-4.8h1V169z"/>
	<path fill="#FFFFFF" d="M58.1,167.5c0,0.3-0.1,0.6-0.3,0.8c-0.2,0.2-0.4,0.4-0.7,0.5c-0.3,0.1-0.6,0.2-1,0.2c-0.3,0-0.5,0-0.8-0.1
		c-0.2,0-0.4-0.1-0.7-0.2c-0.2-0.1-0.4-0.2-0.6-0.4l0.6-0.6c0.3,0.3,0.8,0.5,1.4,0.5c0.2,0,0.4,0,0.5-0.1c0.2,0,0.3-0.1,0.4-0.2
		c0.1-0.1,0.1-0.2,0.1-0.4c0-0.3-0.2-0.5-0.6-0.6l-0.8-0.1c-0.3,0-0.6-0.1-0.8-0.2c-0.2-0.1-0.4-0.2-0.5-0.4
		c-0.1-0.2-0.2-0.4-0.2-0.7c0-0.5,0.2-0.8,0.5-1.1c0.3-0.3,0.8-0.4,1.3-0.4c0.8,0,1.4,0.2,1.8,0.5l-0.6,0.6
		c-0.3-0.2-0.7-0.3-1.2-0.3c-0.3,0-0.5,0.1-0.6,0.2c-0.1,0.1-0.2,0.3-0.2,0.5c0,0.3,0.2,0.5,0.7,0.5l0.8,0.1c0.3,0,0.6,0.1,0.8,0.2
		c0.2,0.1,0.4,0.3,0.5,0.4C58,167,58.1,167.2,58.1,167.5z"/>
	<path fill="#FFFFFF" d="M64,166.8h-3.1c0,0.3,0,0.5,0.1,0.7c0.1,0.2,0.2,0.4,0.4,0.5c0.2,0.1,0.4,0.2,0.7,0.2c0.3,0,0.5,0,0.6-0.1
		c0.2-0.1,0.3-0.2,0.5-0.4l0.6,0.6c-0.3,0.3-0.5,0.4-0.8,0.6c-0.3,0.1-0.6,0.2-1,0.2c-0.3,0-0.6,0-0.9-0.1c-0.3-0.1-0.5-0.2-0.7-0.4
		c-0.2-0.2-0.3-0.4-0.5-0.8c-0.1-0.3-0.2-0.7-0.2-1.1c0-0.5,0.1-1,0.3-1.3c0.2-0.4,0.4-0.6,0.7-0.8c0.3-0.2,0.7-0.3,1.1-0.3
		c0.4,0,0.8,0.1,1.1,0.3c0.3,0.2,0.5,0.5,0.7,0.8c0.2,0.3,0.2,0.7,0.2,1.2V166.8z M63,166.2c0-0.2-0.1-0.5-0.1-0.7
		c-0.1-0.2-0.2-0.3-0.4-0.4c-0.2-0.1-0.4-0.2-0.6-0.2c-0.2,0-0.4,0.1-0.6,0.2c-0.2,0.1-0.3,0.3-0.4,0.4c0,0.1-0.1,0.2-0.1,0.3
		c0,0.1,0,0.2,0,0.4H63z"/>
	<path fill="#FFFFFF" d="M73.2,166.6c0,0.4,0,0.8-0.1,1.1c-0.1,0.3-0.2,0.6-0.4,0.8c-0.4,0.4-0.8,0.6-1.4,0.6
		c-0.6,0-1.1-0.2-1.4-0.6c-0.2-0.2-0.4-0.5-0.4-0.8c-0.1-0.3-0.1-0.7-0.1-1.1c0-0.4,0-0.8,0.1-1.1c0.1-0.3,0.2-0.6,0.4-0.8
		c0.1-0.1,0.2-0.2,0.4-0.3c0.1-0.1,0.3-0.1,0.5-0.2c0.2-0.1,0.4-0.1,0.6-0.1c0.3,0,0.6,0.1,0.8,0.2c0.2,0.1,0.4,0.2,0.6,0.4
		c0.2,0.2,0.4,0.5,0.4,0.8C73.1,165.8,73.2,166.1,73.2,166.6z M72.2,166.6c0-0.3,0-0.6-0.1-0.8c0-0.2-0.1-0.4-0.3-0.5
		c-0.2-0.2-0.4-0.3-0.7-0.3c-0.3,0-0.5,0.1-0.7,0.3c-0.1,0.1-0.2,0.3-0.3,0.5c0,0.2-0.1,0.5-0.1,0.8c0,0.3,0,0.6,0.1,0.8
		c0,0.2,0.1,0.4,0.3,0.5c0.2,0.2,0.4,0.3,0.7,0.3c0.3,0,0.5-0.1,0.7-0.3c0.1-0.1,0.2-0.3,0.3-0.5C72.2,167.1,72.2,166.9,72.2,166.6z
		"/>
	<path fill="#FFFFFF" d="M79.3,166.6c0,0.3,0,0.6,0,0.8c0,0.2-0.1,0.5-0.2,0.7c-0.1,0.2-0.2,0.4-0.3,0.5c-0.1,0.1-0.3,0.2-0.5,0.3
		c-0.2,0.1-0.4,0.1-0.7,0.1c-0.3,0-0.5,0-0.7-0.1c-0.2-0.1-0.4-0.2-0.5-0.4v2.4h-1v-6.7h0.9v0.5c0.2-0.2,0.4-0.4,0.6-0.4
		c0.2-0.1,0.4-0.1,0.7-0.1c0.2,0,0.5,0,0.7,0.1c0.2,0.1,0.4,0.2,0.5,0.3c0.1,0.2,0.3,0.3,0.3,0.5c0.1,0.2,0.1,0.4,0.2,0.7
		C79.3,166,79.3,166.3,79.3,166.6z M78.4,166.6c0-0.3,0-0.6-0.1-0.8c0-0.2-0.1-0.4-0.3-0.5c-0.1-0.1-0.4-0.2-0.6-0.2
		c-0.3,0-0.5,0.1-0.6,0.2c-0.1,0.1-0.2,0.3-0.3,0.5c0,0.2-0.1,0.5-0.1,0.8c0,0.3,0,0.6,0.1,0.8c0.1,0.2,0.1,0.4,0.3,0.6
		c0.1,0.1,0.4,0.2,0.6,0.2c0.4,0,0.7-0.1,0.8-0.4C78.3,167.5,78.4,167.1,78.4,166.6z"/>
	<path fill="#FFFFFF" d="M85.4,166.8h-3.1c0,0.3,0,0.5,0.1,0.7c0.1,0.2,0.2,0.4,0.4,0.5c0.2,0.1,0.4,0.2,0.7,0.2
		c0.3,0,0.5,0,0.6-0.1c0.2-0.1,0.3-0.2,0.5-0.4l0.6,0.6c-0.3,0.3-0.5,0.4-0.8,0.6c-0.3,0.1-0.6,0.2-1,0.2c-0.3,0-0.6,0-0.9-0.1
		c-0.3-0.1-0.5-0.2-0.7-0.4c-0.2-0.2-0.3-0.4-0.5-0.8c-0.1-0.3-0.2-0.7-0.2-1.1c0-0.5,0.1-1,0.3-1.3c0.2-0.4,0.4-0.6,0.7-0.8
		c0.3-0.2,0.7-0.3,1.1-0.3c0.4,0,0.8,0.1,1.1,0.3c0.3,0.2,0.5,0.5,0.7,0.8c0.2,0.3,0.2,0.7,0.2,1.2V166.8z M84.4,166.2
		c0-0.2-0.1-0.5-0.1-0.7c-0.1-0.2-0.2-0.3-0.4-0.4c-0.2-0.1-0.4-0.2-0.6-0.2c-0.2,0-0.4,0.1-0.6,0.2c-0.2,0.1-0.3,0.3-0.4,0.4
		c0,0.1-0.1,0.2-0.1,0.3c0,0.1,0,0.2,0,0.4H84.4z"/>
	<path fill="#FFFFFF" d="M91.5,169h-1V166c0-0.2,0-0.4-0.1-0.6c-0.1-0.2-0.2-0.3-0.3-0.4c-0.1-0.1-0.3-0.1-0.5-0.1
		c-0.3,0-0.5,0.1-0.7,0.3c-0.2,0.2-0.3,0.4-0.3,0.8v2.9h-1v-4.8h0.9v0.5c0.2-0.2,0.4-0.3,0.6-0.4c0.2-0.1,0.5-0.1,0.7-0.1
		c0.5,0,0.9,0.1,1.2,0.4c0.3,0.3,0.5,0.8,0.5,1.3V169z"/>
	<path fill="#FFFFFF" d="M100.4,167.5c0,0.3-0.1,0.6-0.3,0.8c-0.2,0.2-0.4,0.4-0.7,0.5c-0.3,0.1-0.6,0.2-1,0.2c-0.3,0-0.5,0-0.8-0.1
		c-0.2,0-0.4-0.1-0.6-0.2c-0.2-0.1-0.4-0.2-0.6-0.4l0.6-0.6c0.3,0.3,0.8,0.5,1.4,0.5c0.2,0,0.4,0,0.5-0.1c0.2,0,0.3-0.1,0.4-0.2
		c0.1-0.1,0.1-0.2,0.1-0.4c0-0.3-0.2-0.5-0.6-0.6l-0.8-0.1c-0.3,0-0.6-0.1-0.8-0.2c-0.2-0.1-0.4-0.2-0.5-0.4
		c-0.1-0.2-0.2-0.4-0.2-0.7c0-0.5,0.2-0.8,0.5-1.1c0.3-0.3,0.8-0.4,1.3-0.4c0.8,0,1.4,0.2,1.8,0.5l-0.6,0.6
		c-0.3-0.2-0.7-0.3-1.2-0.3c-0.3,0-0.5,0.1-0.6,0.2c-0.1,0.1-0.2,0.3-0.2,0.5c0,0.3,0.2,0.5,0.7,0.5l0.8,0.1c0.3,0,0.6,0.1,0.8,0.2
		c0.2,0.1,0.4,0.3,0.5,0.4C100.3,167,100.4,167.2,100.4,167.5z"/>
	<path fill="#FFFFFF" d="M106.3,166.6c0,0.4,0,0.8-0.1,1.1c-0.1,0.3-0.2,0.6-0.4,0.8c-0.4,0.4-0.8,0.6-1.4,0.6
		c-0.6,0-1.1-0.2-1.4-0.6c-0.2-0.2-0.4-0.5-0.4-0.8c-0.1-0.3-0.1-0.7-0.1-1.1c0-0.4,0-0.8,0.1-1.1c0.1-0.3,0.2-0.6,0.4-0.8
		c0.1-0.1,0.2-0.2,0.4-0.3c0.1-0.1,0.3-0.1,0.5-0.2c0.2-0.1,0.4-0.1,0.6-0.1c0.3,0,0.6,0.1,0.8,0.2c0.2,0.1,0.4,0.2,0.6,0.4
		c0.2,0.2,0.4,0.5,0.4,0.8C106.2,165.8,106.3,166.1,106.3,166.6z M105.3,166.6c0-0.3,0-0.6-0.1-0.8c0-0.2-0.1-0.4-0.3-0.5
		c-0.2-0.2-0.4-0.3-0.7-0.3c-0.3,0-0.5,0.1-0.7,0.3c-0.1,0.1-0.2,0.3-0.3,0.5c0,0.2-0.1,0.5-0.1,0.8c0,0.3,0,0.6,0.1,0.8
		c0,0.2,0.1,0.4,0.3,0.5c0.2,0.2,0.4,0.3,0.7,0.3c0.3,0,0.5-0.1,0.7-0.3c0.1-0.1,0.2-0.3,0.3-0.5
		C105.3,167.1,105.3,166.9,105.3,166.6z"/>
	<path fill="#FFFFFF" d="M112.3,169h-0.9v-0.5c-0.2,0.2-0.4,0.3-0.6,0.4c-0.2,0.1-0.5,0.1-0.7,0.1c-0.5,0-0.9-0.1-1.2-0.4
		c-0.2-0.2-0.3-0.4-0.4-0.6c-0.1-0.2-0.1-0.5-0.1-0.8v-3.1h1v2.9c0,0.4,0.1,0.6,0.3,0.8c0.2,0.2,0.4,0.3,0.7,0.3
		c0.3,0,0.5-0.1,0.7-0.3c0.2-0.2,0.3-0.4,0.3-0.8v-2.9h1V169z"/>
	<path fill="#FFFFFF" d="M118.2,164.6l-0.7,0.7c-0.1-0.1-0.2-0.2-0.3-0.2c-0.1,0-0.2-0.1-0.4-0.1c-0.2,0-0.3,0-0.5,0.1
		c-0.1,0.1-0.3,0.2-0.3,0.4c-0.1,0.2-0.1,0.3-0.1,0.6v2.9h-1v-4.8h0.9v0.5c0.1-0.2,0.3-0.3,0.5-0.4c0.2-0.1,0.5-0.2,0.7-0.2
		c0.2,0,0.4,0,0.6,0.1C117.8,164.3,118,164.4,118.2,164.6z"/>
	<path fill="#FFFFFF" d="M123.4,168.3c-0.1,0.2-0.3,0.3-0.5,0.4c-0.2,0.1-0.3,0.2-0.5,0.2c-0.2,0-0.4,0.1-0.6,0.1
		c-0.4,0-0.7-0.1-1-0.2c-0.3-0.2-0.6-0.4-0.8-0.8c-0.2-0.4-0.3-0.8-0.3-1.4c0-0.4,0.1-0.8,0.2-1.1c0.1-0.3,0.3-0.6,0.5-0.8
		c0.2-0.2,0.4-0.3,0.7-0.4c0.3-0.1,0.5-0.1,0.8-0.1c0.3,0,0.6,0.1,0.9,0.2c0.2,0.1,0.5,0.3,0.7,0.5l-0.7,0.6
		c-0.1-0.2-0.3-0.3-0.4-0.3c-0.1-0.1-0.3-0.1-0.5-0.1c-0.4,0-0.7,0.1-0.9,0.4c-0.1,0.1-0.2,0.3-0.2,0.5c0,0.2-0.1,0.4-0.1,0.7
		c0,0.5,0.1,0.9,0.3,1.2c0.2,0.3,0.5,0.4,0.9,0.4c0.2,0,0.3,0,0.5-0.1c0.1-0.1,0.3-0.2,0.4-0.3L123.4,168.3z"/>
	<path fill="#FFFFFF" d="M129.2,166.8h-3.1c0,0.3,0,0.5,0.1,0.7c0.1,0.2,0.2,0.4,0.4,0.5c0.2,0.1,0.4,0.2,0.7,0.2
		c0.3,0,0.5,0,0.6-0.1c0.2-0.1,0.3-0.2,0.5-0.4l0.6,0.6c-0.3,0.3-0.5,0.4-0.8,0.6c-0.3,0.1-0.6,0.2-1,0.2c-0.3,0-0.6,0-0.9-0.1
		c-0.3-0.1-0.5-0.2-0.7-0.4c-0.2-0.2-0.3-0.4-0.5-0.8c-0.1-0.3-0.2-0.7-0.2-1.1c0-0.5,0.1-1,0.3-1.3c0.2-0.4,0.4-0.6,0.7-0.8
		c0.3-0.2,0.7-0.3,1.1-0.3c0.4,0,0.8,0.1,1.1,0.3c0.3,0.2,0.5,0.5,0.7,0.8c0.2,0.3,0.2,0.7,0.2,1.2V166.8z M128.3,166.2
		c0-0.2-0.1-0.5-0.1-0.7c-0.1-0.2-0.2-0.3-0.4-0.4c-0.2-0.1-0.4-0.2-0.6-0.2c-0.2,0-0.4,0.1-0.6,0.2c-0.2,0.1-0.3,0.3-0.4,0.4
		c0,0.1-0.1,0.2-0.1,0.3c0,0.1,0,0.2,0,0.4H128.3z"/>
</g>
<circle cx="70.2" cy="70.2" r="70.2"/>
<g>
	<g>
		<path fill="#FFFFFF" d="M15.4,63.3c0-0.2,0.1-0.3,0.4-0.4c0,0,0.9,0,2.7,0l1.6,0c0.6,0,1,0.1,1,0.3c0,0.2-0.2,0.4-0.6,0.7
			c-0.4,0.3-0.7,0.7-0.8,1.2c-0.1,0.5-0.2,2.2-0.2,5c0,2.8,0.1,4.5,0.2,5c0.1,0.5,0.3,0.8,0.6,1c0.6,0.4,0.9,0.6,0.9,0.7
			c0,0.2-0.1,0.3-0.4,0.4c-0.1,0-0.9,0-2.5,0h-0.7l-1.1,0c-0.7,0-1-0.1-1-0.3v-0.1c0-0.1,0.2-0.3,0.6-0.6c0.4-0.3,0.7-0.7,0.8-1.2
			c0.1-0.5,0.2-2.2,0.2-5v-1.2l0-0.5c0-0.2,0-0.3,0-0.5l0-1.4c0-0.8-0.1-1.5-0.3-1.9c-0.1-0.2-0.3-0.5-0.7-0.7
			C15.6,63.6,15.4,63.5,15.4,63.3z"/>
		<path fill="#FFFFFF" d="M42.2,77c-0.5,0-1.2-0.5-2.1-1.4c-0.3-0.3-1.5-1.9-3.6-4.9c-2.1-3-3.2-4.4-3.4-4.4c-0.1,0-0.2,1.4-0.2,4.1
			c0,2.7,0.2,4.5,0.5,5.2c0,0.1,0.1,0.2,0.3,0.5c0.2,0.3,0.3,0.4,0.3,0.5c0,0.4-0.8,0.5-2.4,0.5h-0.5c-0.8,0-1.2-0.2-1.2-0.5
			l0.2-0.2l0.7-0.4c0.3-0.2,0.5-0.6,0.6-1c0.1-0.4,0.1-2.1,0.1-4.9c0-2.8-0.1-4.5-0.2-4.9c-0.1-0.4-0.4-0.8-0.8-1.1
			c-0.4-0.3-0.6-0.6-0.6-0.7c0-0.2,0.4-0.4,1.3-0.4c0.9,0,1.5,0.1,1.8,0.2c0.4,0.1,0.7,0.4,1.1,0.7c0.4,0.4,1.5,2,3.6,4.8
			c2,2.8,3.1,4.3,3.2,4.3c0.1,0,0.2-1.1,0.2-3.2c0-2.1-0.1-3.6-0.2-4.3c-0.1-0.7-0.3-1.2-0.4-1.5l-0.4-0.4c-0.1-0.1-0.2-0.2-0.2-0.4
			c0-0.2,0.3-0.3,0.9-0.3h0.5c1.3,0,2.1,0.1,2.4,0.3l0.1,0.2c0,0.2-0.2,0.5-0.5,0.9c-0.3,0.4-0.6,0.9-0.6,1.4
			c-0.1,0.5-0.1,1.9-0.1,4.4l0,1.5l0,0.5c0,0.3,0,0.7,0,1l0,1c0,1.4,0,2.2-0.1,2.4C42.5,76.9,42.4,77,42.2,77z"/>
		<path fill="#FFFFFF" d="M58.7,77.3c-0.5,0-0.9-0.4-1.2-1.3c-0.1-0.2-0.4-1-1-2.6c-0.6-1.5-0.9-2.5-1-2.8l-1-2.7
			c-0.6-1.5-0.9-2.4-1.1-2.7c-0.2-0.3-0.4-0.6-0.9-0.9c-0.4-0.3-0.7-0.6-0.7-0.8c0-0.3,0.8-0.5,2.5-0.5H55c1.1,0,1.6,0.1,1.6,0.4
			c0,0-0.1,0.2-0.2,0.5c-0.1,0.3-0.2,0.7-0.2,1c0,0.7,0.8,3.3,2.5,7.9c0.3,0.7,0.4,1.1,0.5,1.1c0.1,0,0.3-0.3,0.5-0.9
			c1.7-4.6,2.6-7.4,2.6-8.3c0-0.3-0.1-0.7-0.3-0.9c-0.2-0.3-0.3-0.5-0.3-0.5c0-0.2,0.5-0.3,1.4-0.3c1.6,0,2.3,0.2,2.3,0.5
			c0,0.2-0.2,0.5-0.7,0.9c-0.4,0.4-0.8,0.7-0.9,1.1c-0.2,0.4-0.8,2.2-2,5.3c-1.2,3.2-1.9,5-2.2,5.6C59.4,77,59.1,77.3,58.7,77.3z"/>
		<path fill="#FFFFFF" d="M74.7,63.3c0-0.2,0.1-0.3,0.4-0.4c0.1,0,0.9,0,2.7,0l1.6,0c0.6,0,1,0.1,1,0.3c0,0.2-0.2,0.4-0.6,0.7
			c-0.4,0.3-0.7,0.7-0.8,1.2c-0.1,0.5-0.2,2.2-0.2,5c0,2.8,0.1,4.5,0.2,5c0.1,0.5,0.3,0.8,0.6,1c0.6,0.4,0.9,0.6,0.9,0.7
			c0,0.2-0.1,0.3-0.4,0.4c-0.1,0-0.9,0-2.4,0h-0.7l-1.1,0c-0.7,0-1-0.1-1-0.3v-0.1c0-0.1,0.2-0.3,0.6-0.6c0.4-0.3,0.7-0.7,0.8-1.2
			c0.1-0.5,0.2-2.2,0.2-5v-1.2l0-0.5c0-0.2,0-0.3,0-0.5l0-1.4c0-0.8-0.1-1.5-0.3-1.9c-0.1-0.2-0.3-0.5-0.7-0.7
			C74.9,63.6,74.7,63.5,74.7,63.3z"/>
		<path fill="#FFFFFF" d="M89.2,69.9v-0.3c0-0.9,0.2-1.8,0.5-2.7c0.3-0.9,0.8-1.6,1.5-2.3c1.3-1.3,2.9-2,4.7-2
			c1.9,0,3.4,0.6,4.5,1.8c1.3,1.3,2,3.1,2,5.3c0,2.2-0.8,4.2-2.3,5.9c-0.7,0.9-1.1,1.3-1.1,1.3c0,0.3,0.3,0.6,0.9,1
			c0.6,0.3,1.3,0.6,2.1,0.9c0.8,0.2,1.2,0.5,1.2,0.6v0.1c0,0.1-0.1,0.2-0.2,0.2c-0.3,0.3-0.8,0.4-1.5,0.4c-1.1,0-2.5-0.4-4.3-1.1
			c-1.8-0.7-3.3-1.6-4.6-2.6C90.4,74.6,89.2,72.4,89.2,69.9C89.2,69.9,89.2,69.9,89.2,69.9z M91.7,69.5v0.4c0,0.8,0.1,1.6,0.3,2.4
			c0.4,1.5,1.1,2.5,2.1,3.2c0.5,0.3,0.9,0.5,1.3,0.5h0.3c1.1,0,2.1-0.6,3-1.7c0.9-1.1,1.3-2.5,1.3-4v-0.8c0-0.7-0.1-1.4-0.3-2.2
			c-0.4-1.5-1.1-2.5-2.1-3.1c-0.5-0.3-1.1-0.5-1.7-0.5h-0.2c-1.2,0-2.2,0.5-3,1.6C92.1,66.6,91.7,67.9,91.7,69.5z"/>
		<path fill="#FFFFFF" d="M125.9,76.4c0,0.3-0.2,0.4-0.5,0.5c-0.3,0.1-0.9,0.1-1.7,0.1l-0.6,0h-0.3l-0.3,0c-1,0-1.5-0.1-1.5-0.4
			c0,0,0.1-0.2,0.2-0.4c0.1-0.3,0.2-0.6,0.2-0.9c0-0.3-0.1-0.8-0.3-1.5c-0.2-0.6-0.4-1.1-0.6-1.2c-0.2-0.2-1-0.3-2.2-0.3
			c-1.2,0-2,0.1-2.2,0.3c-0.1,0.1-0.3,0.4-0.5,0.9c-0.2,0.5-0.3,1-0.3,1.4c0,0.5,0.1,0.8,0.2,1.1c0,0,0.1,0.1,0.2,0.3
			c0.1,0.2,0.2,0.3,0.2,0.4c0,0.2-0.5,0.3-1.4,0.3c-0.9,0-1.6,0-2-0.1c-0.4-0.1-0.5-0.3-0.5-0.5c0-0.1,0.1-0.3,0.4-0.5
			c0.3-0.2,0.5-0.4,0.5-0.4c0.3-0.3,0.6-0.8,0.8-1.4c0.2-0.6,0.7-1.8,1.4-3.6c0.7-1.8,1.2-3.3,1.5-4.3c0.3-1,0.6-1.7,0.7-2.1
			c0.4-0.8,0.8-1.2,1.4-1.2c0.6,0,1.1,0.5,1.5,1.4c0.3,0.7,0.9,2.2,1.7,4.5c0.8,2.3,1.5,4.2,2.1,5.7c0.2,0.5,0.5,0.9,0.8,1.1
			C125.6,76.1,125.9,76.3,125.9,76.4z M119.8,71.3c0.4,0,0.6-0.1,0.6-0.2c0-0.4-0.5-2-1.5-4.9c-0.2-0.4-0.2-0.7-0.3-0.7
			c0,0-0.3,0.9-1,2.6c-0.6,1.7-0.9,2.7-0.9,2.9v0.1c0,0.1,0.1,0.1,0.3,0.1l0.1,0l1.7,0H119.8z"/>
	</g>
	<g>
		<g>
			<path fill="#FFFFFF" d="M127,63.6C126.9,63.6,126.9,63.6,127,63.6c-0.1,0.1-0.1,0.2-0.1,0.4l0,0.1v0.1v0.1v0.1c0,0.3,0,0.4,0,0.5
				c0,0.1,0,0.1,0.1,0.1c0.1,0.1,0.1,0.1,0.1,0.1c0,0,0,0-0.1,0h0l0,0l-0.3,0c-0.1,0-0.2,0-0.2,0c0,0,0,0,0.1-0.1
				c0,0,0.1-0.1,0.1-0.1c0-0.1,0-0.2,0-0.4l0-0.1v-0.3c0-0.3,0-0.4,0-0.5c0-0.1-0.1-0.1-0.1-0.1c-0.1,0-0.2,0.1-0.3,0.2
				c0,0.1-0.1,0.1-0.1,0.1c0,0,0,0,0-0.1c0-0.2,0-0.3,0.1-0.3c0,0,0.1,0,0.3,0h0.1l0,0h0.2c0.4,0,0.6,0,0.6,0c0,0,0.1,0.1,0.1,0.3v0
				c0,0.1,0,0.1,0,0.1c0,0,0,0-0.1-0.1c0-0.1-0.1-0.1-0.1-0.1C127.1,63.6,127,63.6,127,63.6z"/>
			<path fill="#FFFFFF" d="M129.2,63.8c0,0-0.1,0.2-0.2,0.5c-0.1,0.4-0.2,0.6-0.2,0.6c0,0.1-0.1,0.1-0.1,0.1c0,0-0.1-0.2-0.3-0.6
				c-0.2-0.4-0.3-0.6-0.3-0.6c0,0,0,0.2,0,0.5s0,0.5,0,0.6l0,0c0,0,0,0.1,0,0.1c0,0-0.1,0.1-0.2,0.1c-0.1,0-0.2,0-0.2-0.1
				c0,0,0,0,0.1-0.1c0,0,0.1-0.1,0.1-0.2c0-0.1,0-0.4,0-0.9c0-0.2,0-0.3-0.1-0.3l0,0c0,0,0,0,0-0.1c0,0,0.1,0,0.2,0
				c0.1,0,0.1,0,0.2,0c0,0,0.1,0.1,0.1,0.1c0,0,0.1,0.2,0.2,0.6c0.1,0.3,0.2,0.5,0.2,0.5c0,0,0.1-0.2,0.2-0.5
				c0.1-0.3,0.2-0.5,0.3-0.6c0-0.1,0.1-0.1,0.1-0.1c0,0,0.1,0,0.1,0c0.1,0,0.2,0,0.2,0c0,0,0,0.1-0.1,0.1c0,0-0.1,0.1-0.1,0.1
				c0,0.1,0,0.2,0,0.4l0,0.1c0,0.1,0,0.2,0,0.3c0,0.2,0,0.3,0,0.3c0,0.1,0,0.1,0.1,0.1l0,0c0,0,0.1,0.1,0.1,0.1l0,0c0,0-0.1,0-0.2,0
				s-0.2,0-0.3,0c0,0,0,0,0-0.1l0,0l0,0c0,0,0-0.1,0-0.1c0-0.1,0-0.2,0-0.5l0-0.4C129.2,63.8,129.2,63.8,129.2,63.8z"/>
		</g>
	</g>
</g>
</svg>
